<svg width="860" height="430" viewBox="0 0 860 430" xmlns="http://www.w3.org/2000/svg"><rect width="100%" height="100%" fill="#ffffff"/><text x="430.0" y="32" text-anchor="middle" font-size="20" font-weight="700">性状组合统计（n=1000）</text><line x1="70" y1="330" x2="800" y2="330" stroke="#222"/><line x1="70" y1="330" x2="70" y2="90" stroke="#222"/><rect x="640" y="56" width="18" height="18" fill="#3b82f6"/><text x="666" y="70" font-size="14">实际次数</text><rect x="740" y="56" width="18" height="18" fill="#f59e0b"/><text x="766" y="70" font-size="14">理论期望次数</text><line x1="66" y1="330.0" x2="800" y2="330.0" stroke="#e5e7eb"/><text x="60" y="335.0" text-anchor="end" font-size="12">0</text><line x1="66" y1="270.0" x2="800" y2="270.0" stroke="#e5e7eb"/><text x="60" y="275.0" text-anchor="end" font-size="12">141</text><line x1="66" y1="210.0" x2="800" y2="210.0" stroke="#e5e7eb"/><text x="60" y="215.0" text-anchor="end" font-size="12">282</text><line x1="66" y1="150.0" x2="800" y2="150.0" stroke="#e5e7eb"/><text x="60" y="155.0" text-anchor="end" font-size="12">423</text><line x1="66" y1="90.0" x2="800" y2="90.0" stroke="#e5e7eb"/><text x="60" y="95.0" text-anchor="end" font-size="12">564</text><rect x="105" y="90.0" width="34" height="240.0" fill="#3b82f6" rx="3"/><rect x="147" y="90.63829787234042" width="34" height="239.36170212765958" fill="#f59e0b" rx="3"/><text x="122.0" y="84.0" text-anchor="middle" font-size="12">564</text><text x="164.0" y="84.63829787234042" text-anchor="middle" font-size="12">562.5</text><text x="139" y="354" text-anchor="middle" font-size="13">非糯性长粒</text><rect x="275" y="247.02127659574467" width="34" height="82.97872340425532" fill="#3b82f6" rx="3"/><rect x="317" y="250.2127659574468" width="34" height="79.7872340425532" fill="#f59e0b" rx="3"/><text x="292.0" y="241.02127659574467" text-anchor="middle" font-size="12">195</text><text x="334.0" y="244.2127659574468" text-anchor="middle" font-size="12">187.5</text><text x="309" y="354" text-anchor="middle" font-size="13">非糯性短粒</text><rect x="445" y="250.0" width="34" height="80.0" fill="#3b82f6" rx="3"/><rect x="487" y="250.2127659574468" width="34" height="79.7872340425532" fill="#f59e0b" rx="3"/><text x="462.0" y="244.0" text-anchor="middle" font-size="12">188</text><text x="504.0" y="244.2127659574468" text-anchor="middle" font-size="12">187.5</text><text x="479" y="354" text-anchor="middle" font-size="13">糯性长粒</text><rect x="615" y="307.4468085106383" width="34" height="22.5531914893617" fill="#3b82f6" rx="3"/><rect x="657" y="303.40425531914894" width="34" height="26.595744680851062" fill="#f59e0b" rx="3"/><text x="632.0" y="301.4468085106383" text-anchor="middle" font-size="12">53</text><text x="674.0" y="297.40425531914894" text-anchor="middle" font-size="12">62.5</text><text x="649" y="354" text-anchor="middle" font-size="13">糯性短粒</text></svg>