<svg width="860" height="430" viewBox="0 0 860 430" xmlns="http://www.w3.org/2000/svg"><rect width="100%" height="100%" fill="#ffffff"/><text x="430.0" y="32" text-anchor="middle" font-size="20" font-weight="700">性状组合统计（n=10）</text><line x1="70" y1="330" x2="800" y2="330" stroke="#222"/><line x1="70" y1="330" x2="70" y2="90" stroke="#222"/><rect x="640" y="56" width="18" height="18" fill="#3b82f6"/><text x="666" y="70" font-size="14">实际次数</text><rect x="740" y="56" width="18" height="18" fill="#f59e0b"/><text x="766" y="70" font-size="14">理论期望次数</text><line x1="66" y1="330.0" x2="800" y2="330.0" stroke="#e5e7eb"/><text x="60" y="335.0" text-anchor="end" font-size="12">0</text><line x1="66" y1="270.0" x2="800" y2="270.0" stroke="#e5e7eb"/><text x="60" y="275.0" text-anchor="end" font-size="12">2</text><line x1="66" y1="210.0" x2="800" y2="210.0" stroke="#e5e7eb"/><text x="60" y="215.0" text-anchor="end" font-size="12">3</text><line x1="66" y1="150.0" x2="800" y2="150.0" stroke="#e5e7eb"/><text x="60" y="155.0" text-anchor="end" font-size="12">4</text><line x1="66" y1="90.0" x2="800" y2="90.0" stroke="#e5e7eb"/><text x="60" y="95.0" text-anchor="end" font-size="12">6</text><rect x="105" y="90.0" width="34" height="240.0" fill="#3b82f6" rx="3"/><rect x="147" y="105.0" width="34" height="225.0" fill="#f59e0b" rx="3"/><text x="122.0" y="84.0" text-anchor="middle" font-size="12">6</text><text x="164.0" y="99.0" text-anchor="middle" font-size="12">5.6</text><text x="139" y="354" text-anchor="middle" font-size="13">非糯性长粒</text><rect x="275" y="250.0" width="34" height="80.0" fill="#3b82f6" rx="3"/><rect x="317" y="255.0" width="34" height="75.0" fill="#f59e0b" rx="3"/><text x="292.0" y="244.0" text-anchor="middle" font-size="12">2</text><text x="334.0" y="249.0" text-anchor="middle" font-size="12">1.9</text><text x="309" y="354" text-anchor="middle" font-size="13">非糯性短粒</text><rect x="445" y="250.0" width="34" height="80.0" fill="#3b82f6" rx="3"/><rect x="487" y="255.0" width="34" height="75.0" fill="#f59e0b" rx="3"/><text x="462.0" y="244.0" text-anchor="middle" font-size="12">2</text><text x="504.0" y="249.0" text-anchor="middle" font-size="12">1.9</text><text x="479" y="354" text-anchor="middle" font-size="13">糯性长粒</text><rect x="615" y="330.0" width="34" height="0.0" fill="#3b82f6" rx="3"/><rect x="657" y="305.0" width="34" height="25.0" fill="#f59e0b" rx="3"/><text x="632.0" y="324.0" text-anchor="middle" font-size="12">0</text><text x="674.0" y="299.0" text-anchor="middle" font-size="12">0.6</text><text x="649" y="354" text-anchor="middle" font-size="13">糯性短粒</text></svg>